PathFileType	4	(X/Y/Z)	Patient4_TMGait_0pt4_03_left_05.trc.trc
DataRate	CameraRate	NumFrames	NumMarkers	Units	OrigDataRate	OrigDataStartFrame	OrigNumFrames
75.268817204301	75.268817204301	5	33	mm	75.268817204301	36	       141
Frame#	Time	Sacral			L.Shoulder			Chest			R.Shoulder			Neck			R.ASIS			L.ASIS			R.Thigh.Superior			R.Thigh.Lateral			R.Thigh.Inferior			R.Patella			L.Thigh.Superior			L.Thigh.Lateral			L.Thigh.Inferior			L.Patella			L.Shank.Superior			L.Shank.Lateral			L.Shank.Inferior			R.Shank.Superior			R.Shank.Lateral			R.Shank.Inferior			R.Heel			R.Midfoot.Superior			R.Midfoot.Lateral			R.Toe			L.Heel			L.Midfoot.Lateral			L.Midfoot.Superior			L.Toe			L.Elbow			L.Wrist			R.Elbow			R.Wrist			
		X1	Y1	Z1	X2	Y2	Z2	X3	Y3	Z3	X4	Y4	Z4	X5	Y5	Z5	X6	Y6	Z6	X7	Y7	Z7	X8	Y8	Z8	X9	Y9	Z9	X10	Y10	Z10	X11	Y11	Z11	X12	Y12	Z12	X13	Y13	Z13	X14	Y14	Z14	X15	Y15	Z15	X16	Y16	Z16	X17	Y17	Z17	X18	Y18	Z18	X19	Y19	Z19	X20	Y20	Z20	X21	Y21	Z21	X22	Y22	Z22	X23	Y23	Z23	X24	Y24	Z24	X25	Y25	Z25	X26	Y26	Z26	X27	Y27	Z27	X28	Y28	Z28	X29	Y29	Z29	X30	Y30	Z30	X31	Y31	Z31	X32	Y32	Z32	X33	Y33	Z33	

36	6.565000000000	842.000419775938	1004.719278502126	483.589858935119	990.416612532704	1429.167179746841	275.813259623728	1115.251467592701	1366.524549380065	423.011931411141	1054.192604827362	1442.296881127335	605.069859594975	991.802197689499	1494.203071296741	431.291649566470	1077.968040918930	941.079369428313	578.646694735185	1042.549378651305	959.668975488557	307.433685642757	1100.720567019653	730.896355209449	556.303079612165	1017.159482392050	626.398998253359	627.259769373134	1086.795370048756	564.275672253138	547.876129267244	1076.888626000738	461.585781732066	566.873687095169	1114.134109518627	762.649117717762	335.387558645587	1038.766459696089	636.529632230231	277.336565551002	1137.063131749164	570.237683808540	333.725668053146	1145.944219449529	500.503796413173	341.582249119479	1124.207539538711	426.361970243316	334.295844808912	1040.869763152548	306.061279297238	285.690184063257	1104.315587675793	197.463212739135	351.820580146510	1010.294056551733	389.496209452922	576.197376061616	902.881876895130	329.006934429478	644.423640013979	901.355968333069	221.300333971206	589.614668105342	712.740662780399	112.035976246304	570.536709101825	890.931996307067	108.653738539778	604.965693438946	789.322690934698	75.722863912287	642.294851000383	987.224635162627	34.952388427971	630.514825306357	989.344391378020	38.576691153768	397.780558240393	1060.755532115112	36.059915446039	314.704494074247	1144.291977513418	97.698082566568	339.834382714530	1272.265187704614	46.011681311744	307.179910194055	916.517286116444	1078.839035697294	177.445571640745	969.187631093824	821.620016083293	175.743983055073	1140.629952125954	1103.295556650088	714.450629597436	1369.436830436955	1058.950610929925	612.773938662151	
37	6.578285714286	841.439758225190	1005.050900839994	479.787907142678	992.063130807118	1429.235604910401	271.928986045343	1115.476282751353	1366.865687493378	420.402003524957	1052.844572210464	1443.075023663696	601.711889400482	991.882090340832	1494.659937314887	427.232696167539	1076.894680124639	941.753364062470	576.600684011533	1043.416755039669	959.970286615280	305.329810901639	1105.182784017527	733.170981912846	554.523576664362	1024.558753709991	626.814772561544	625.406534192814	1096.603849907993	565.974405600072	546.541382391693	1088.045706844871	461.770262185462	566.531774287823	1113.376799161017	761.889809929297	332.561140904772	1036.619830638422	636.447917187160	275.229022767442	1134.275242186224	569.497311923252	331.715143877061	1142.611604389876	499.946399991601	339.951214649027	1120.695149453614	425.860649980601	332.859572816111	1036.965426588025	305.738311148865	284.398499630348	1099.721838222615	197.181819907472	351.249726081333	1019.140524011100	390.531658367041	575.591212833157	909.156117088285	334.033505114951	643.183401331552	904.985866772903	225.939221822108	589.432874867636	713.056862699062	124.395527886104	569.889089816158	890.804569379752	112.299342791145	605.039214945547	787.463863212902	84.216041852209	641.793863275420	982.527909842028	34.243787416710	630.487656724685	984.093041640118	38.543946952003	397.702702358239	1055.471838069126	35.966241508233	314.570985520970	1139.026084775705	97.581662176894	339.706899221591	1267.051220778998	45.811368532587	307.068944917014	924.006997870884	1078.094802977105	171.147670999460	983.844088493084	822.394298876392	169.286622638484	1133.960834158906	1102.625532754710	711.784763448221	1360.855545205916	1040.340673921471	612.941600895289	
38	6.591571428571	840.665735109510	1005.236992814131	476.120151170033	993.718169868253	1429.141297599928	268.177895678095	1115.618462295882	1367.043155228085	417.986675480025	1051.357467704950	1443.664659292184	598.542689000724	991.938326694074	1494.980384030685	423.352241454326	1075.708859157466	942.237645137258	574.687191762098	1044.078950149545	960.198055335631	303.360255095005	1109.753336304685	735.639950614403	552.840573067059	1032.169917330122	627.433769911285	623.672610476229	1106.599107184563	568.002214834018	545.347769230098	1099.421154275989	462.432071279328	566.067048606010	1112.345986786962	761.055107862554	329.911806868979	1034.403922242741	636.341776250812	273.130542003918	1131.362128621184	568.768308613557	329.833235539219	1139.149197019958	499.359141517482	338.335685479128	1117.057110974605	425.328318577568	331.439533462733	1032.960033300226	305.361345267297	283.145041462065	1095.078240335881	196.876122259849	350.692166894180	1028.410108923851	391.887254590217	574.886075657084	916.069856812609	339.340746276084	641.883534491142	909.188531562759	230.978861233971	589.105459008921	714.264724622184	137.317517963675	569.078872845513	891.236728131603	116.563421143033	604.962580996859	786.337347712728	93.402864027776	641.169306204860	978.319709911485	33.646574997954	630.435247401725	978.800138759501	38.512695948678	397.643454846708	1050.147511704754	35.859139933048	314.458336462840	1133.745367927410	97.418468246846	339.599120621093	1261.806712328370	45.527546143241	306.982669044783	931.754012844170	1077.338007734052	164.887595353227	998.740675553187	823.339398760703	162.928229760541	1126.815825996493	1101.738244842949	709.317878277439	1350.636072204598	1021.613656365258	614.204487187921	
39	6.604857142857	839.709860076724	1005.310277858183	472.622677902621	995.325916089266	1428.925129946525	264.609505879529	1115.669463812241	1367.087906461073	415.772791291696	1049.773230010068	1444.084414978179	595.592124901626	991.979757687108	1495.193927671855	419.701276297823	1074.435603302521	942.573553765253	572.873315409169	1044.509785694192	960.382195422352	301.482108898314	1114.277654668909	738.316421251924	551.211612258711	1039.809267690231	628.326303104272	622.059971896277	1116.546681716028	570.405240295728	544.283935422455	1110.814458870000	463.624383887018	565.496432412880	1111.113220116888	760.220805939561	327.453357182461	1032.176222839851	636.233244935281	271.074934186278	1128.393754872622	568.071226207761	328.082141841080	1135.626832361777	498.763615597998	336.773763490626	1113.359323725109	424.783595682989	330.070796089069	1028.913294839515	304.965038884675	281.948283140530	1090.419116089940	196.562727785292	350.163746632180	1037.936792283373	393.598809140734	574.097650655907	923.492954586090	344.848096360732	640.549432548220	913.932576081863	236.327557303577	588.640966298536	716.407481206085	150.410058111451	568.133185260883	892.325089940822	121.352912228055	604.725855699677	786.089443779591	103.001724776909	640.431532554833	974.867244585882	33.258281491552	630.332881092233	973.479506712333	38.487236834062	397.588478649754	1044.799188430747	35.752554470545	314.356016605175	1128.455769711107	97.235025742463	339.502939899909	1256.540397054919	45.203387537466	306.911626646148	939.797744201597	1076.606768859783	158.738379966229	1013.800485065962	824.468412981105	156.710255971867	1119.158369503410	1100.648996106895	707.096470963983	1338.701593688355	1002.879783699827	616.663991338662	
40	6.618142857143	838.615447192750	1005.318671848168	469.316271920112	996.831738280056	1428.647781682597	261.265853788022	1115.621763732435	1367.050502908329	413.760231556277	1048.128729185959	1444.368940418566	592.881162911681	992.008770503496	1495.344145036125	416.317451351305	1073.097070732905	942.827448038434	571.129583365074	1044.704244235443	960.556724431374	299.658711245647	1118.604542809945	741.208766618833	549.593944897651	1047.297930347415	629.550843221855	620.566977608550	1126.224950409041	573.217624632103	543.328442027255	1122.041301919861	465.381526326951	564.850464695022	1109.751564743838	759.440718626238	325.180118551757	1029.956209247161	636.135669303767	269.106637884805	1125.409619306219	567.413161661600	326.466260948617	1132.088232836082	498.177437627171	335.314071896180	1109.642684300592	424.244920548876	328.795646961955	1024.863469334207	304.580427405475	280.837748769107	1085.766641247666	196.258478261186	349.686643503045	1047.568680046315	395.688709000846	573.257380895546	931.298003554786	350.451617158537	639.215399572799	919.210464372733	241.856094860581	588.067900371617	719.527734241428	163.208662603984	567.099821431114	894.201339097244	126.500677990382	604.329908188661	786.884250836080	112.648719375474	639.605719720215	972.487065240052	33.182251976939	630.152823463697	968.142143659206	38.469404712654	397.528809790275	1039.439762151436	35.657349393409	314.257917073471	1123.159979156080	97.054765355593	339.413804989714	1251.257780821076	44.879842625795	306.847469225559	948.162537341582	1075.962971820172	152.774543643272	1028.952932965009	825.814757432426	150.680044758219	1110.973612082487	1099.412138553407	705.156547775285	1324.998153652718	984.280992076950	620.373624531251	
